# xmcd
#
# Track frame offsets: 
#        150
#        12931
#        24908
#        37317
#        50147
#        62759
#        75017
#        87449
#        98925
#        111947
#        124223
#        136862
#        150406
#        161941
#        174694
#        188283
#        201136
#        212156
#        223355
#        235941
#        246609
#        259300
#        271275
#        284356
#        295596
#
# Disc length: 4086 seconds
#
# Revision: 6
# Processed by: cddbd v1.5.2PL0 Copyright (c) Steve Scherf et al.
# Submitted via: ExactAudioCopyFreeDBPlugin 1.0
#
DISCID=750ff419
DTITLE=Various Artist - Hillbilly Boogie [CD3]
DYEAR=2002
DGENRE=Hillbilly
TTITLE0=Chet Atkins - Boogie Man Boogie
TTITLE1=Johnny Barfield - Boogie Woogie
TTITLE2=Turner Bros (Red and Lige) - Boog-Boog Boogie
TTITLE3=Jerry Irby and His Texas Ranchers - Super Boogie Woogie
TTITLE4=The Village Boys - Boogie Woogie In The Village
TTITLE5=Johnny Barfield - Doin' The Boogie Woogie
TTITLE6=The Delmore Brothers - Hillbilly Boogie
TTITLE7=Jimmy Bryant - Boogie Barn Dance
TTITLE8=Hank Harral and His Palomino Cowhands - Dream Band Boogie
TTITLE9=Tillman Franks - Hayride Boogie
TTITLE10=Hardrock Gunter - Boogie Woogie On A Saturday Night
TTITLE11=Arthur Smith's Sensational Trio - Country Boogie
TTITLE12=Jerry Irby and His Texas Ranchers - Hillbilly Boogie
TTITLE13=Bill Haley and The Saddlemen - Green Tree Boogie
TTITLE14=Charlie Harris with R.D. Hendon's Western Jamboree Cowboys - 
TTITLE14=No Shoes Boogie
TTITLE15=Wes Holly - Shufflin' Shoes Boogie
TTITLE16=Big Jeff and The Radio Playboys - Juke Box Boogie
TTITLE17=Freddie Burns and His Ranch Boys - Juke Box Boogie
TTITLE18=The Delmore Brothers - Boogie Woogie Baby
TTITLE19=Jack Padgett The Texas Wrangler - Boogie Woogie Gal
TTITLE20=Art Gunn and His Arizona Playboys - Cornbread Boogie
TTITLE21=Wayne Raney - Catfish Boogie
TTITLE22=Cousin Deems Sanders And His Goatherders with Walt McCoy - Go
TTITLE22=atburger Boogie
TTITLE23=Bill Haley and The Saddlemen - Sundown Boogie
TTITLE24=Billy Briggs - Alarm Clock Boogie
EXTD=See <http://www.propermusic.com/products.asp?recnumber=71> for de
EXTD=tailed track-list and discography.\nCompiled and annotated by Ada
EXTD=m Komorowski - produced by Joop Visser Productions.\nDigital remas
EXTD=tering by Peter Rynston at Tall Order Mastering.\n4CD: Proper Rec
EXTD=ords PROPERBOX 50 (2002-10/11 - 2005), UPC 805520020503.
EXTT0=
EXTT1=
EXTT2=
EXTT3=
EXTT4=
EXTT5=
EXTT6=
EXTT7=
EXTT8=
EXTT9=
EXTT10=
EXTT11=
EXTT12=
EXTT13=
EXTT14=
EXTT15=
EXTT16=
EXTT17=
EXTT18=
EXTT19=
EXTT20=
EXTT21=
EXTT22=
EXTT23=
EXTT24=
PLAYORDER=
